<svg xmlns="http://www.w3.org/2000/svg" width="140" height="50" fill="none"><rect width="140" height="50" fill="#1D242F" rx="8"/><path fill="#fff" d="M29.797 25.58a4.989 4.989 0 0 1 2.357-4.152 5.128 5.128 0 0 0-3.991-2.157c-1.68-.177-3.308 1.004-4.163 1.004-.872 0-2.19-.987-3.609-.958a5.359 5.359 0 0 0-4.473 2.728c-1.934 3.349-.491 8.27 1.362 10.976.926 1.326 2.01 2.806 3.427 2.754 1.387-.058 1.905-.885 3.58-.885 1.658 0 2.144.885 3.59.851 1.489-.024 2.427-1.331 3.321-2.669a10.96 10.96 0 0 0 1.519-3.093 4.825 4.825 0 0 1-2.92-4.399ZM27.066 17.49A4.872 4.872 0 0 0 28.18 14a4.957 4.957 0 0 0-3.207 1.66 4.678 4.678 0 0 0-1.144 3.361 4.147 4.147 0 0 0 3.237-1.53ZM41.2 19.18h.75c.127-.253.233-.567.32-.94s.153-.773.2-1.2c.047-.433.08-.877.1-1.33.02-.46.03-.897.03-1.31V13h4.55v6.18H48v2.12h-.9V20h-5v1.3h-.9v-2.12Zm5.01 0v-5.36h-2.69v.78c0 1.013-.047 1.89-.14 2.63-.087.74-.23 1.39-.43 1.95h3.26Zm4.997.92a2.93 2.93 0 0 1-.97-.16 2.361 2.361 0 0 1-.81-.5 2.486 2.486 0 0 1-.56-.85c-.14-.34-.21-.737-.21-1.19v-.2c0-.427.07-.803.21-1.13a2.313 2.313 0 0 1 1.37-1.3c.307-.113.63-.17.97-.17.34 0 .663.057.97.17a2.312 2.312 0 0 1 1.37 1.3c.14.327.21.703.21 1.13v.2c0 .453-.07.85-.21 1.19-.14.34-.327.623-.56.85a2.36 2.36 0 0 1-.81.5 2.93 2.93 0 0 1-.97.16Zm0-.8c.2 0 .4-.033.6-.1.2-.073.377-.183.53-.33.153-.153.277-.35.37-.59.1-.24.15-.533.15-.88v-.2c0-.32-.05-.593-.15-.82a1.609 1.609 0 0 0-.37-.56 1.397 1.397 0 0 0-.53-.32c-.2-.067-.4-.1-.6-.1-.2 0-.4.033-.6.1-.2.067-.377.173-.53.32-.153.147-.28.333-.38.56-.093.227-.14.5-.14.82v.2c0 .347.047.64.14.88.1.24.227.437.38.59.153.147.33.257.53.33.2.067.4.1.6.1Zm5.846.8c-.34 0-.656-.053-.95-.16a2.098 2.098 0 0 1-.76-.5 2.492 2.492 0 0 1-.51-.85c-.12-.34-.18-.737-.18-1.19v-.2c0-.427.067-.803.2-1.13.133-.327.31-.597.53-.81a2.1 2.1 0 0 1 .76-.49c.294-.113.597-.17.91-.17.314 0 .594.043.84.13a1.977 1.977 0 0 1 1.1.9c.12.207.207.43.26.67h-.9a1.948 1.948 0 0 0-.19-.35.98.98 0 0 0-.26-.29c-.1-.08-.22-.143-.36-.19a1.55 1.55 0 0 0-.49-.07c-.193 0-.38.037-.56.11-.18.067-.34.173-.48.32-.14.14-.253.323-.34.55-.08.227-.12.5-.12.82v.2c0 .34.04.633.12.88.087.24.2.437.34.59.14.147.3.257.48.33.18.067.367.1.56.1.327 0 .6-.08.82-.24.227-.16.387-.38.48-.66h.9c-.127.527-.386.943-.78 1.25-.393.3-.867.45-1.42.45Zm4.61-4.62h-1.81v-.78h4.5v.78h-1.81V20h-.88v-4.52Zm4.587 6.62c-.1 0-.2-.01-.3-.03v-.8c.1.02.2.03.3.03.1 0 .187-.017.26-.05a.551.551 0 0 0 .21-.19c.067-.093.137-.227.21-.4.08-.167.17-.387.27-.66l-2.25-5.3h.98l1.72 4.3 1.56-4.3h.94l-2 5.3c-.14.373-.273.693-.4.96a2.8 2.8 0 0 1-.41.65c-.14.173-.297.297-.47.37-.173.08-.38.12-.62.12Zm4.896-7.4h4.4V20h-.88v-4.52h-2.64V20h-.88v-5.3Zm5.996 0h.88v2.21h2.74V14.7h.88V20h-.88v-2.31h-2.74V20h-.88v-5.3Zm8.303 5.4a2.93 2.93 0 0 1-.97-.16 2.36 2.36 0 0 1-.81-.5 2.486 2.486 0 0 1-.56-.85c-.14-.34-.21-.737-.21-1.19v-.2c0-.427.07-.803.21-1.13a2.313 2.313 0 0 1 1.37-1.3c.307-.113.63-.17.97-.17.34 0 .664.057.97.17a2.313 2.313 0 0 1 1.37 1.3c.14.327.21.703.21 1.13v.2c0 .453-.07.85-.21 1.19-.14.34-.326.623-.56.85a2.36 2.36 0 0 1-.81.5 2.93 2.93 0 0 1-.97.16Zm0-.8c.2 0 .4-.033.6-.1.2-.073.377-.183.53-.33.154-.153.277-.35.37-.59.1-.24.15-.533.15-.88v-.2c0-.32-.05-.593-.15-.82a1.61 1.61 0 0 0-.37-.56 1.397 1.397 0 0 0-.53-.32c-.2-.067-.4-.1-.6-.1-.2 0-.4.033-.6.1-.2.067-.376.173-.53.32-.153.147-.28.333-.38.56-.093.227-.14.5-.14.82v.2c0 .347.047.64.14.88.1.24.227.437.38.59.154.147.33.257.53.33.2.067.4.1.6.1Zm6.296-4.6h2.3c.654 0 1.134.137 1.44.41.307.267.46.613.46 1.04 0 .113-.02.23-.06.35-.04.113-.096.22-.17.32-.066.1-.15.187-.25.26-.093.073-.2.13-.32.17.327.08.574.233.74.46.174.22.26.48.26.78 0 .46-.153.827-.46 1.1-.306.273-.786.41-1.44.41h-2.5v-5.3Zm2.5 4.52c.374 0 .637-.067.79-.2.154-.133.23-.323.23-.57 0-.253-.076-.447-.23-.58-.153-.14-.416-.21-.79-.21h-1.62v1.56h1.62Zm-.2-2.28c.38 0 .644-.067.79-.2.154-.133.23-.317.23-.55a.638.638 0 0 0-.23-.52c-.146-.127-.41-.19-.79-.19h-1.42v1.46h1.42ZM47.692 34.788h-3.976L42.89 37h-1.68l3.71-9.8h1.68l3.71 9.8h-1.792l-.826-2.212Zm-3.43-1.456h2.884L45.718 29.3l-1.456 4.032Zm7.234-3.752h1.428v1.246c.224-.43.555-.77.994-1.022a3.03 3.03 0 0 1 1.512-.378c.97 0 1.736.303 2.296.91.56.607.84 1.521.84 2.744v.28c0 .635-.075 1.19-.224 1.666-.15.476-.364.873-.644 1.19-.271.308-.598.541-.98.7a3.333 3.333 0 0 1-1.288.238 3.052 3.052 0 0 1-1.456-.35 2.03 2.03 0 0 1-.938-.98V39.8h-1.54V29.58Zm3.57 6.23c.578 0 1.045-.2 1.4-.602.354-.401.532-1.017.532-1.848v-.28c0-.784-.173-1.363-.518-1.736-.346-.383-.817-.574-1.414-.574-.262 0-.514.042-.756.126-.243.084-.462.21-.658.378a1.699 1.699 0 0 0-.448.616 1.985 1.985 0 0 0-.168.84v.98c0 .355.056.663.168.924.112.261.261.48.448.658.186.177.401.308.644.392.242.084.499.126.77.126Zm5.043-6.23h1.428v1.246c.224-.43.555-.77.994-1.022a3.03 3.03 0 0 1 1.512-.378c.97 0 1.736.303 2.296.91.56.607.84 1.521.84 2.744v.28c0 .635-.075 1.19-.224 1.666-.15.476-.364.873-.644 1.19-.27.308-.597.541-.98.7a3.334 3.334 0 0 1-1.288.238 3.052 3.052 0 0 1-1.456-.35 2.029 2.029 0 0 1-.938-.98V39.8h-1.54V29.58Zm3.57 6.23c.579 0 1.045-.2 1.4-.602.355-.401.532-1.017.532-1.848v-.28c0-.784-.173-1.363-.518-1.736-.345-.383-.817-.574-1.414-.574-.261 0-.513.042-.756.126-.243.084-.462.21-.658.378a1.697 1.697 0 0 0-.448.616 1.985 1.985 0 0 0-.168.84v.98c0 .355.056.663.168.924.112.261.261.48.448.658.187.177.401.308.644.392.243.084.5.126.77.126Zm12.113 1.344c-.635 0-1.185-.07-1.652-.21a3.474 3.474 0 0 1-1.176-.588 2.685 2.685 0 0 1-.714-.882 3.238 3.238 0 0 1-.308-1.134h1.68c.037.196.098.373.182.532.093.159.224.299.392.42s.378.215.63.28c.262.065.584.098.966.098.392 0 .724-.033.994-.098.28-.075.504-.168.672-.28.177-.121.303-.261.378-.42.084-.168.126-.345.126-.532 0-.457-.215-.803-.644-1.036-.42-.233-1.078-.443-1.974-.63A9.713 9.713 0 0 1 74 32.282a3.526 3.526 0 0 1-.98-.574 2.388 2.388 0 0 1-.602-.826c-.13-.327-.196-.714-.196-1.162 0-.364.075-.71.224-1.036.159-.327.388-.611.686-.854a3.347 3.347 0 0 1 1.106-.574c.448-.14.966-.21 1.554-.21.57 0 1.069.065 1.498.196.43.13.789.317 1.078.56.299.233.528.513.686.84.168.327.27.686.308 1.078h-1.68a1.35 1.35 0 0 0-.574-.854c-.299-.224-.737-.336-1.316-.336-.672 0-1.157.117-1.456.35-.29.233-.434.513-.434.84 0 .448.187.784.56 1.008.373.224.947.415 1.722.574.57.121 1.069.261 1.498.42.439.159.803.36 1.092.602.29.233.504.513.644.84.15.327.224.719.224 1.176 0 .401-.08.775-.238 1.12a2.382 2.382 0 0 1-.728.896c-.317.252-.719.448-1.204.588-.476.14-1.036.21-1.68.21Zm8.269-.084c-.85 0-1.46-.182-1.834-.546-.364-.364-.546-.952-.546-1.764v-3.864h-1.05V29.58h1.05V27.9h1.54v1.68h1.89v1.316h-1.89v3.654c0 .439.08.747.238.924.168.168.485.252.952.252.28 0 .56-.014.84-.042V37c-.177.019-.36.033-.546.042a6.535 6.535 0 0 1-.644.028Zm5.887.084c-.513 0-.994-.08-1.442-.238a3.346 3.346 0 0 1-1.148-.728 3.347 3.347 0 0 1-.77-1.176c-.187-.476-.28-1.027-.28-1.652v-.28c0-.588.093-1.106.28-1.554a3.23 3.23 0 0 1 .77-1.148 3.18 3.18 0 0 1 1.148-.714 4.288 4.288 0 0 1 1.442-.238c.513 0 .99.08 1.428.238a3.228 3.228 0 0 1 1.932 1.862c.187.448.28.966.28 1.554v.28c0 .625-.093 1.176-.28 1.652a3.344 3.344 0 0 1-.77 1.176c-.327.317-.714.56-1.162.728a4.167 4.167 0 0 1-1.428.238Zm0-1.344c.27 0 .527-.047.77-.14.252-.093.471-.238.658-.434.196-.196.35-.448.462-.756.121-.308.182-.681.182-1.12v-.28c0-.401-.06-.747-.182-1.036a1.93 1.93 0 0 0-1.12-1.134 2.24 2.24 0 0 0-1.554 0 1.976 1.976 0 0 0-.658.42c-.187.187-.34.425-.462.714a2.87 2.87 0 0 0-.168 1.036v.28c0 .439.056.812.168 1.12.121.308.275.56.462.756.196.196.415.34.658.434.252.093.513.14.784.14Zm5.175-6.23h1.428v1.26c.149-.383.392-.714.728-.994.345-.28.77-.42 1.274-.42.233 0 .406.01.518.028.12.019.205.037.252.056v1.4a3.118 3.118 0 0 0-.434-.098 2.31 2.31 0 0 0-.476-.042c-.308 0-.574.056-.798.168a1.48 1.48 0 0 0-.532.42c-.14.168-.248.369-.322.602a2.485 2.485 0 0 0-.098.7V37h-1.54v-7.42Zm8.538 7.574c-.495 0-.961-.075-1.4-.224a3.422 3.422 0 0 1-1.162-.7 3.475 3.475 0 0 1-.784-1.19c-.196-.476-.294-1.036-.294-1.68v-.28c0-.616.093-1.153.28-1.61a3.19 3.19 0 0 1 .756-1.134c.327-.308.7-.537 1.12-.686.42-.15.868-.224 1.344-.224 1.129 0 1.993.303 2.59.91.607.607.91 1.475.91 2.604v.784h-5.432c.009.383.07.71.182.98.121.261.275.476.462.644.196.159.415.275.658.35.252.075.509.112.77.112.532 0 .919-.084 1.162-.252.252-.168.425-.387.518-.658h1.54c-.149.737-.518 1.297-1.106 1.68-.579.383-1.283.574-2.114.574Zm-.07-6.384a2.9 2.9 0 0 0-.756.098 1.76 1.76 0 0 0-.63.322 1.56 1.56 0 0 0-.434.56c-.112.224-.173.5-.182.826h3.892c-.009-.345-.065-.635-.168-.868a1.375 1.375 0 0 0-.392-.56 1.457 1.457 0 0 0-.602-.294 2.998 2.998 0 0 0-.728-.084Z"/></svg>