<svg width="145" height="54" viewBox="0 0 145 54" fill="none" xmlns="http://www.w3.org/2000/svg">
<g clip-path="url(#clip0_1_1519)">
<rect x="0.5" y="0.799805" width="144" height="53" rx="12" fill="#222C3A"/>
<g clip-path="url(#clip1_1_1519)">
<g clip-path="url(#clip2_1_1519)">
<g clip-path="url(#clip3_1_1519)">
<mask id="mask0_1_1519" style="mask-type:luminance" maskUnits="userSpaceOnUse" x="32" y="-13" width="81" height="81">
<path d="M32.5 -12.7002H112.5V67.2998H32.5V-12.7002Z" fill="white"/>
</mask>
<g mask="url(#mask0_1_1519)">
<path d="M74.1541 32.6909C73.6231 32.6909 73.133 32.6092 72.6838 32.4459C72.2346 32.2825 71.867 32.0375 71.5403 31.7516C71.2136 31.4248 70.9685 31.0573 70.7643 30.5672C70.601 30.0771 70.4785 29.5463 70.4785 28.8928V28.6068C70.4785 27.9943 70.5601 27.5042 70.7643 27.0141C70.9685 26.5648 71.2136 26.1973 71.5403 25.8706C71.867 25.5439 72.2754 25.3397 72.6838 25.1763C73.133 25.0129 73.5823 24.9313 74.0724 24.9313C74.6033 24.9313 75.0526 25.0129 75.461 25.1354C75.8693 25.258 76.1961 25.4622 76.482 25.7072C76.7679 25.9523 76.9721 26.2382 77.1354 26.5648C77.2988 26.8916 77.3805 27.2591 77.4622 27.6268H75.5835C75.461 27.3 75.2976 27.0141 75.0934 26.8099C74.8892 26.6057 74.5625 26.524 74.1132 26.524C73.8682 26.524 73.664 26.5648 73.419 26.6465C73.2148 26.7283 73.0105 26.8508 72.8471 27.0141C72.6838 27.1775 72.5613 27.4225 72.4796 27.6676C72.3979 27.9126 72.3571 28.2393 72.3571 28.6068V28.8928C72.3571 29.3011 72.3979 29.6279 72.4796 29.9138C72.5613 30.1997 72.6838 30.4447 72.8471 30.6081C73.0105 30.7714 73.1739 30.9348 73.419 31.0165C73.6231 31.0982 73.8682 31.139 74.1132 31.139C74.4808 31.139 74.8075 31.0573 75.0526 30.8531C75.2976 30.6489 75.5018 30.4039 75.5835 30.0363H77.4622C77.4213 30.4447 77.2988 30.8123 77.1354 31.139C76.9721 31.4657 76.727 31.7516 76.4411 31.9966C76.1553 32.2417 75.8285 32.4051 75.4202 32.5276C75.0934 32.65 74.6442 32.6909 74.1541 32.6909Z" fill="white"/>
<path d="M81.3012 32.6089C80.8519 32.6089 80.4843 32.568 80.1984 32.4864C79.8717 32.4047 79.6267 32.2821 79.4225 32.0779C79.2183 31.8737 79.0549 31.6287 78.9732 31.2612C78.8916 30.9344 78.8507 30.526 78.8507 29.9951V22.7255H80.6885V29.7909C80.6885 30.0359 80.6885 30.2401 80.7294 30.3627C80.7702 30.526 80.8111 30.6485 80.8927 30.7302C80.9744 30.8118 81.056 30.8936 81.2194 30.9344C81.342 30.9753 81.5054 31.0161 81.7095 31.0161H81.9954C82.0772 31.0161 82.1588 31.0161 82.1996 30.9753V32.5272C82.1588 32.5272 82.0772 32.5272 81.9954 32.568C81.9137 32.568 81.832 32.568 81.7912 32.6089H81.5462H81.3012Z" fill="white"/>
<path d="M84.4866 24.3189C84.1599 24.3189 83.8739 24.2372 83.6699 24.033C83.4656 23.8288 83.3839 23.5838 83.3839 23.2978C83.3839 23.012 83.4656 22.7669 83.6699 22.5627C83.8739 22.3586 84.1599 22.2769 84.4866 22.2769C84.8133 22.2769 85.0993 22.3586 85.3034 22.5627C85.5076 22.7669 85.5893 23.012 85.5893 23.2978C85.5893 23.5838 85.5076 23.8288 85.3034 24.033C85.0993 24.2372 84.8133 24.3189 84.4866 24.3189ZM83.5473 25.0949H85.3851V32.5278H83.5473V25.0949Z" fill="white"/>
<path d="M90.4902 32.6909C89.9592 32.6909 89.4691 32.6092 89.0199 32.4459C88.5707 32.2825 88.2031 32.0375 87.8764 31.7516C87.5497 31.4248 87.3046 31.0573 87.1004 30.5672C86.9371 30.0771 86.8145 29.5463 86.8145 28.8928V28.6068C86.8145 27.9943 86.8962 27.5042 87.1004 27.0141C87.3046 26.5648 87.5497 26.1973 87.8764 25.8706C88.2031 25.5439 88.6115 25.3397 89.0199 25.1763C89.4691 25.0129 89.9184 24.9313 90.4085 24.9313C90.9394 24.9313 91.3886 25.0129 91.7971 25.1354C92.2054 25.258 92.5322 25.4622 92.8181 25.7072C93.104 25.9523 93.3082 26.2382 93.4715 26.5648C93.6348 26.8916 93.7165 27.2591 93.7982 27.6268H91.9196C91.7971 27.3 91.6337 27.0141 91.4295 26.8099C91.2253 26.6057 90.8986 26.524 90.4493 26.524C90.2043 26.524 90.0001 26.5648 89.755 26.6465C89.5508 26.7283 89.3466 26.8508 89.1832 27.0141C89.0199 27.1775 88.8974 27.4225 88.8157 27.6676C88.734 27.9126 88.6931 28.2393 88.6931 28.6068V28.8928C88.6931 29.3011 88.734 29.6279 88.8157 29.9138C88.8974 30.1997 89.0199 30.4447 89.1832 30.6081C89.3466 30.7714 89.51 30.9348 89.755 31.0165C89.9592 31.0982 90.2043 31.139 90.4493 31.139C90.8168 31.139 91.1436 31.0573 91.3886 30.8531C91.6337 30.6489 91.8379 30.4039 91.9196 30.0363H93.7982C93.7574 30.4447 93.6348 30.8123 93.4715 31.139C93.3082 31.4657 93.0631 31.7516 92.7772 31.9966C92.4914 32.2417 92.1645 32.4051 91.7562 32.5276C91.4295 32.65 90.9802 32.6909 90.4902 32.6909Z" fill="white"/>
<path d="M95.1051 32.5273V22.7256H96.9837V28.1574L99.6792 25.0944H101.844L99.0666 28.239L102.13 32.5273H99.9243L97.8006 29.5051L96.9837 30.4036V32.5273H95.1051Z" fill="white"/>
</g>
<path d="M46.9544 19.4177C44.2181 22.1132 42.8704 24.6861 42.8704 27.259V27.2999C42.8704 29.8729 44.2181 32.4866 46.9544 35.182C49.6498 37.8775 52.2636 39.2252 54.8366 39.2661H54.8774C57.4503 39.2661 60.0641 37.9183 62.7596 35.182C68.1504 29.7912 68.1913 24.8495 62.7596 19.3769C60.0232 16.6814 57.4095 15.3337 54.8366 15.3337C52.2228 15.3337 49.6498 16.6814 46.9544 19.4177ZM50.5075 31.5881C47.5261 28.6068 47.567 25.9114 50.5075 22.9709C53.448 20.0303 56.1435 19.9895 59.1248 22.9709C62.1061 25.9522 62.0653 28.6476 59.1248 31.5881C57.6545 33.0583 56.2251 33.7935 54.8366 33.7935C54.7991 33.7946 54.7614 33.7952 54.7239 33.7952C53.334 33.7952 51.979 33.0596 50.5075 31.5881Z" fill="url(#paint0_linear_1_1519)"/>
</g>
</g>
</g>
</g>
<defs>
<linearGradient id="paint0_linear_1_1519" x1="46.8608" y1="35.6822" x2="62.113" y2="19.6868" gradientUnits="userSpaceOnUse">
<stop stop-color="#0078FF"/>
<stop offset="1" stop-color="#00DEFF"/>
</linearGradient>
<clipPath id="clip0_1_1519">
<rect x="0.5" y="0.799805" width="144" height="53" rx="12" fill="white"/>
</clipPath>
<clipPath id="clip1_1_1519">
<rect width="80" height="80" fill="white" transform="translate(32.5 -12.7002)"/>
</clipPath>
<clipPath id="clip2_1_1519">
<rect width="80" height="80" fill="white" transform="translate(32.5 -12.7002)"/>
</clipPath>
<clipPath id="clip3_1_1519">
<rect width="80" height="80" fill="white" transform="translate(32.5 -12.7002)"/>
</clipPath>
</defs>
</svg>
