<svg xmlns="http://www.w3.org/2000/svg" width="140" height="50" fill="none"><rect width="140" height="50" fill="#1D242F" rx="8"/><g filter="url(#a)"><path fill="url(#b)" d="M15.342 15.293c-.215.228-.342.58-.342 1.038v16.337c0 .458.127.81.342 1.038l.055.053 9.152-9.151v-.216l-9.152-9.153-.055.054Z"/><path fill="url(#c)" d="m27.598 27.659-3.05-3.052v-.215L27.6 21.34l.069.039 3.614 2.054c1.032.586 1.032 1.546 0 2.133l-3.614 2.053-.07.039Z"/><g filter="url(#d)"><path fill="url(#e)" d="m27.668 27.62-3.12-3.12-9.206 9.206c.34.36.902.405 1.535.046l10.791-6.132Z"/></g><path fill="url(#f)" d="m27.668 21.38-10.79-6.132c-.634-.36-1.196-.314-1.536.046L24.55 24.5l3.12-3.12Z"/></g><path fill="#fff" d="M41.2 19.18h.75c.127-.253.233-.567.32-.94s.153-.773.2-1.2c.047-.433.08-.877.1-1.33.02-.46.03-.897.03-1.31V13h4.55v6.18H48v2.12h-.9V20h-5v1.3h-.9v-2.12Zm5.01 0v-5.36h-2.69v.78c0 1.013-.047 1.89-.14 2.63-.087.74-.23 1.39-.43 1.95h3.26Zm4.997.92a2.93 2.93 0 0 1-.97-.16 2.361 2.361 0 0 1-.81-.5 2.486 2.486 0 0 1-.56-.85c-.14-.34-.21-.737-.21-1.19v-.2c0-.427.07-.803.21-1.13a2.313 2.313 0 0 1 1.37-1.3c.307-.113.63-.17.97-.17.34 0 .663.057.97.17a2.312 2.312 0 0 1 1.37 1.3c.14.327.21.703.21 1.13v.2c0 .453-.07.85-.21 1.19-.14.34-.327.623-.56.85a2.36 2.36 0 0 1-.81.5 2.93 2.93 0 0 1-.97.16Zm0-.8c.2 0 .4-.033.6-.1.2-.073.377-.183.53-.33.153-.153.277-.35.37-.59.1-.24.15-.533.15-.88v-.2c0-.32-.05-.593-.15-.82a1.609 1.609 0 0 0-.37-.56 1.397 1.397 0 0 0-.53-.32c-.2-.067-.4-.1-.6-.1-.2 0-.4.033-.6.1-.2.067-.377.173-.53.32-.153.147-.28.333-.38.56-.093.227-.14.5-.14.82v.2c0 .347.047.64.14.88.1.24.227.437.38.59.153.147.33.257.53.33.2.067.4.1.6.1Zm5.846.8c-.34 0-.656-.053-.95-.16a2.098 2.098 0 0 1-.76-.5 2.492 2.492 0 0 1-.51-.85c-.12-.34-.18-.737-.18-1.19v-.2c0-.427.067-.803.2-1.13.133-.327.31-.597.53-.81a2.1 2.1 0 0 1 .76-.49c.294-.113.597-.17.91-.17.314 0 .594.043.84.13a1.977 1.977 0 0 1 1.1.9c.12.207.207.43.26.67h-.9a1.948 1.948 0 0 0-.19-.35.98.98 0 0 0-.26-.29c-.1-.08-.22-.143-.36-.19a1.55 1.55 0 0 0-.49-.07c-.193 0-.38.037-.56.11-.18.067-.34.173-.48.32-.14.14-.253.323-.34.55-.08.227-.12.5-.12.82v.2c0 .34.04.633.12.88.087.24.2.437.34.59.14.147.3.257.48.33.18.067.367.1.56.1.327 0 .6-.08.82-.24.227-.16.387-.38.48-.66h.9c-.127.527-.386.943-.78 1.25-.393.3-.867.45-1.42.45Zm4.61-4.62h-1.81v-.78h4.5v.78h-1.81V20h-.88v-4.52Zm4.587 6.62c-.1 0-.2-.01-.3-.03v-.8c.1.02.2.03.3.03.1 0 .187-.017.26-.05a.551.551 0 0 0 .21-.19c.067-.093.137-.227.21-.4.08-.167.17-.387.27-.66l-2.25-5.3h.98l1.72 4.3 1.56-4.3h.94l-2 5.3c-.14.373-.273.693-.4.96a2.8 2.8 0 0 1-.41.65c-.14.173-.297.297-.47.37-.173.08-.38.12-.62.12Zm4.896-7.4h4.4V20h-.88v-4.52h-2.64V20h-.88v-5.3Zm5.996 0h.88v2.21h2.74V14.7h.88V20h-.88v-2.31h-2.74V20h-.88v-5.3Zm8.303 5.4a2.93 2.93 0 0 1-.97-.16 2.36 2.36 0 0 1-.81-.5 2.486 2.486 0 0 1-.56-.85c-.14-.34-.21-.737-.21-1.19v-.2c0-.427.07-.803.21-1.13a2.313 2.313 0 0 1 1.37-1.3c.307-.113.63-.17.97-.17.34 0 .664.057.97.17a2.313 2.313 0 0 1 1.37 1.3c.14.327.21.703.21 1.13v.2c0 .453-.07.85-.21 1.19-.14.34-.326.623-.56.85a2.36 2.36 0 0 1-.81.5 2.93 2.93 0 0 1-.97.16Zm0-.8c.2 0 .4-.033.6-.1.2-.073.377-.183.53-.33.154-.153.277-.35.37-.59.1-.24.15-.533.15-.88v-.2c0-.32-.05-.593-.15-.82a1.61 1.61 0 0 0-.37-.56 1.397 1.397 0 0 0-.53-.32c-.2-.067-.4-.1-.6-.1-.2 0-.4.033-.6.1-.2.067-.376.173-.53.32-.153.147-.28.333-.38.56-.093.227-.14.5-.14.82v.2c0 .347.047.64.14.88.1.24.227.437.38.59.154.147.33.257.53.33.2.067.4.1.6.1Zm6.296-4.6h2.3c.654 0 1.134.137 1.44.41.307.267.46.613.46 1.04 0 .113-.02.23-.06.35-.04.113-.096.22-.17.32-.066.1-.15.187-.25.26-.093.073-.2.13-.32.17.327.08.574.233.74.46.174.22.26.48.26.78 0 .46-.153.827-.46 1.1-.306.273-.786.41-1.44.41h-2.5v-5.3Zm2.5 4.52c.374 0 .637-.067.79-.2.154-.133.23-.323.23-.57 0-.253-.076-.447-.23-.58-.153-.14-.416-.21-.79-.21h-1.62v1.56h1.62Zm-.2-2.28c.38 0 .644-.067.79-.2.154-.133.23-.317.23-.55a.638.638 0 0 0-.23-.52c-.146-.127-.41-.19-.79-.19h-1.42v1.46h1.42ZM46.18 37.154a5.216 5.216 0 0 1-1.834-.308 3.687 3.687 0 0 1-1.386-.952c-.383-.42-.677-.938-.882-1.554-.205-.625-.308-1.349-.308-2.17v-.28c0-.765.103-1.447.308-2.044.215-.607.513-1.115.896-1.526.392-.42.859-.737 1.4-.952a4.86 4.86 0 0 1 1.806-.322c1.017 0 1.871.266 2.562.798.69.523 1.143 1.288 1.358 2.296h-1.82a2.822 2.822 0 0 0-.378-.77 1.923 1.923 0 0 0-.504-.49 1.654 1.654 0 0 0-.602-.266 2.332 2.332 0 0 0-.616-.084c-.793 0-1.433.275-1.918.826-.485.541-.728 1.386-.728 2.534v.28c0 .597.065 1.115.196 1.554.13.439.313.803.546 1.092.233.29.513.504.84.644.327.14.681.21 1.064.21.728 0 1.307-.191 1.736-.574.439-.383.695-.985.77-1.806H46.46v-1.4h3.85v.56c0 .784-.098 1.47-.294 2.058-.187.588-.457 1.078-.812 1.47a3.328 3.328 0 0 1-1.302.882c-.504.196-1.078.294-1.722.294Zm9.028 0c-.514 0-.994-.08-1.442-.238a3.345 3.345 0 0 1-1.148-.728 3.345 3.345 0 0 1-.77-1.176c-.187-.476-.28-1.027-.28-1.652v-.28c0-.588.093-1.106.28-1.554a3.23 3.23 0 0 1 .77-1.148 3.18 3.18 0 0 1 1.148-.714 4.288 4.288 0 0 1 1.442-.238c.513 0 .99.08 1.428.238a3.23 3.23 0 0 1 1.932 1.862c.186.448.28.966.28 1.554v.28c0 .625-.093 1.176-.28 1.652a3.345 3.345 0 0 1-.77 1.176c-.327.317-.714.56-1.162.728a4.168 4.168 0 0 1-1.428.238Zm0-1.344c.27 0 .527-.047.77-.14.252-.093.471-.238.658-.434.196-.196.35-.448.462-.756.121-.308.182-.681.182-1.12v-.28c0-.401-.06-.747-.182-1.036a1.93 1.93 0 0 0-1.12-1.134 2.24 2.24 0 0 0-1.554 0 1.975 1.975 0 0 0-.658.42c-.187.187-.34.425-.462.714a2.87 2.87 0 0 0-.168 1.036v.28c0 .439.056.812.168 1.12.121.308.275.56.462.756.196.196.415.34.658.434.252.093.513.14.784.14Zm8.394 1.344c-.513 0-.994-.08-1.442-.238a3.346 3.346 0 0 1-1.148-.728 3.347 3.347 0 0 1-.77-1.176c-.186-.476-.28-1.027-.28-1.652v-.28c0-.588.094-1.106.28-1.554a3.23 3.23 0 0 1 .77-1.148 3.18 3.18 0 0 1 1.148-.714 4.288 4.288 0 0 1 1.442-.238c.514 0 .99.08 1.428.238a3.228 3.228 0 0 1 1.932 1.862c.187.448.28.966.28 1.554v.28c0 .625-.093 1.176-.28 1.652a3.344 3.344 0 0 1-.77 1.176c-.326.317-.714.56-1.162.728a4.167 4.167 0 0 1-1.428.238Zm0-1.344c.271 0 .528-.047.77-.14.252-.093.472-.238.658-.434.196-.196.35-.448.462-.756.122-.308.182-.681.182-1.12v-.28c0-.401-.06-.747-.182-1.036a1.93 1.93 0 0 0-1.12-1.134 2.24 2.24 0 0 0-1.554 0 1.976 1.976 0 0 0-.658.42c-.186.187-.34.425-.462.714a2.87 2.87 0 0 0-.168 1.036v.28c0 .439.056.812.168 1.12.122.308.276.56.462.756.196.196.416.34.658.434.252.093.514.14.784.14Zm8.255 4.144c-.579 0-1.064-.056-1.456-.168-.392-.103-.714-.252-.966-.448a1.828 1.828 0 0 1-.56-.7c-.121-.261-.2-.55-.238-.868h1.568c.037.112.088.22.154.322.075.112.172.21.294.294.13.084.294.15.49.196.196.056.434.084.714.084.7 0 1.213-.168 1.54-.504.326-.336.49-.817.49-1.442v-1.05c-.234.392-.55.714-.952.966-.401.252-.882.378-1.442.378-.476 0-.905-.08-1.288-.238a2.753 2.753 0 0 1-.994-.7c-.27-.308-.48-.695-.63-1.162-.15-.467-.224-1.008-.224-1.624v-.28c0-.579.075-1.087.224-1.526.15-.448.36-.821.63-1.12.28-.308.611-.541.994-.7a3.295 3.295 0 0 1 1.274-.238c.616 0 1.143.14 1.582.42.448.28.76.607.938.98V29.58h1.428v7.07c0 1.045-.299 1.857-.896 2.436-.598.579-1.489.868-2.674.868Zm-.014-4.284c.27 0 .527-.042.77-.126.252-.084.471-.21.658-.378.186-.177.336-.392.448-.644.112-.261.168-.56.168-.896v-.98c0-.299-.056-.565-.168-.798a1.683 1.683 0 0 0-.462-.588 1.961 1.961 0 0 0-.658-.364 2.295 2.295 0 0 0-.756-.126c-.588 0-1.055.187-1.4.56-.346.364-.518.924-.518 1.68v.28c0 .793.177 1.39.532 1.792.355.392.817.588 1.386.588Zm7.927 1.4c-.401 0-.746-.042-1.036-.126a1.737 1.737 0 0 1-.728-.406 1.854 1.854 0 0 1-.42-.756 4.538 4.538 0 0 1-.126-1.148V27.2H79v7.322c0 .457.075.775.224.952.15.168.425.252.826.252h.266l.224-.028v1.33a1.666 1.666 0 0 1-.364.028 7.7 7.7 0 0 1-.406.014Zm5.256.084c-.495 0-.961-.075-1.4-.224a3.425 3.425 0 0 1-1.162-.7 3.48 3.48 0 0 1-.784-1.19c-.196-.476-.294-1.036-.294-1.68v-.28c0-.616.094-1.153.28-1.61a3.18 3.18 0 0 1 .756-1.134c.327-.308.7-.537 1.12-.686.42-.15.868-.224 1.344-.224 1.13 0 1.993.303 2.59.91.607.607.91 1.475.91 2.604v.784h-5.432c.01.383.07.71.182.98.121.261.276.476.462.644.196.159.415.275.658.35.252.075.509.112.77.112.532 0 .92-.084 1.162-.252.252-.168.425-.387.518-.658h1.54c-.15.737-.518 1.297-1.106 1.68-.579.383-1.283.574-2.114.574Zm-.07-6.384c-.261 0-.513.033-.756.098a1.754 1.754 0 0 0-.63.322c-.177.14-.322.327-.434.56-.112.224-.172.5-.182.826h3.892c-.01-.345-.065-.635-.168-.868a1.379 1.379 0 0 0-.392-.56 1.455 1.455 0 0 0-.602-.294 2.997 2.997 0 0 0-.728-.084Zm8.751-3.57h3.57c1.316 0 2.287.285 2.912.854.626.56.938 1.316.938 2.268 0 .952-.312 1.713-.938 2.282-.625.56-1.596.84-2.912.84h-1.89V37h-1.68v-9.8Zm3.43 4.788c.439 0 .808-.033 1.106-.098.299-.075.537-.177.714-.308.178-.14.304-.313.378-.518.075-.215.112-.462.112-.742 0-.28-.037-.523-.112-.728a1.152 1.152 0 0 0-.378-.518c-.177-.14-.415-.243-.714-.308a4.64 4.64 0 0 0-1.106-.112h-1.75v3.332h1.75Zm7.912 5.082a3.75 3.75 0 0 1-1.036-.126 1.74 1.74 0 0 1-.728-.406 1.87 1.87 0 0 1-.42-.756 4.538 4.538 0 0 1-.126-1.148V27.2h1.54v7.322c0 .457.075.775.224.952.15.168.425.252.826.252h.266l.224-.028v1.33a1.662 1.662 0 0 1-.364.028c-.168.01-.303.014-.406.014Zm4.343.084c-.401 0-.76-.056-1.078-.168a2.385 2.385 0 0 1-.784-.49 2.199 2.199 0 0 1-.49-.742 2.466 2.466 0 0 1-.168-.924c0-.737.22-1.283.658-1.638.439-.364 1.083-.546 1.932-.546h2.31v-.406c0-.56-.126-.943-.378-1.148-.242-.215-.63-.322-1.162-.322-.476 0-.826.075-1.05.224a.86.86 0 0 0-.392.616h-1.498c.019-.317.098-.607.238-.868.15-.27.35-.504.602-.7a2.83 2.83 0 0 1 .938-.448 4.186 4.186 0 0 1 1.232-.168c.458 0 .868.051 1.232.154.374.103.691.266.952.49.262.215.462.495.602.84.15.345.224.76.224 1.246v2.954c0 .392.005.737.014 1.036.01.29.033.574.07.854h-1.4l-.07-.546a9.534 9.534 0 0 1-.014-.56c-.177.345-.485.644-.924.896-.429.243-.961.364-1.596.364Zm.42-1.344c.262 0 .509-.033.742-.098a2.08 2.08 0 0 0 .63-.308 1.54 1.54 0 0 0 .42-.504c.112-.205.168-.439.168-.7v-.406h-2.03c-.392 0-.709.084-.952.252-.233.168-.35.415-.35.742 0 .308.108.555.322.742.224.187.574.28 1.05.28Zm6.379 4.144c-.14 0-.28-.014-.42-.042v-1.344c.14.028.28.042.42.042a.81.81 0 0 0 .392-.084.659.659 0 0 0 .294-.266c.094-.121.182-.285.266-.49.094-.205.196-.462.308-.77l-3.15-7.42h1.68l2.268 5.74 2.044-5.74h1.568l-2.87 7.42c-.205.523-.396.97-.574 1.344a3.63 3.63 0 0 1-.588.91c-.205.243-.438.42-.7.532a2.372 2.372 0 0 1-.938.168Z"/><defs><linearGradient id="b" x1="23.737" x2="11.34" y1="16.158" y2="28.555" gradientUnits="userSpaceOnUse"><stop stop-color="#00A0FF"/><stop offset=".007" stop-color="#00A1FF"/><stop offset=".26" stop-color="#00BEFF"/><stop offset=".512" stop-color="#00D2FF"/><stop offset=".76" stop-color="#00DFFF"/><stop offset="1" stop-color="#00E3FF"/></linearGradient><linearGradient id="c" x1="32.626" x2="14.752" y1="24.5" y2="24.5" gradientUnits="userSpaceOnUse"><stop stop-color="#FFE000"/><stop offset=".409" stop-color="#FFBD00"/><stop offset=".775" stop-color="orange"/><stop offset="1" stop-color="#FF9C00"/></linearGradient><linearGradient id="e" x1="25.974" x2="9.162" y1="26.195" y2="43.006" gradientUnits="userSpaceOnUse"><stop stop-color="#FF3A44"/><stop offset="1" stop-color="#C31162"/></linearGradient><linearGradient id="f" x1="13.024" x2="20.531" y1="9.856" y2="17.363" gradientUnits="userSpaceOnUse"><stop stop-color="#32A071"/><stop offset=".069" stop-color="#2DA771"/><stop offset=".476" stop-color="#15CF74"/><stop offset=".801" stop-color="#06E775"/><stop offset="1" stop-color="#00F076"/></linearGradient><filter id="a" width="17.056" height="19" x="15" y="15" color-interpolation-filters="sRGB" filterUnits="userSpaceOnUse"><feFlood flood-opacity="0" result="BackgroundImageFix"/><feBlend in="SourceGraphic" in2="BackgroundImageFix" result="shape"/><feColorMatrix in="SourceAlpha" result="hardAlpha" values="0 0 0 0 0 0 0 0 0 0 0 0 0 0 0 0 0 0 127 0"/><feOffset dy="-.111"/><feComposite in2="hardAlpha" k2="-1" k3="1" operator="arithmetic"/><feColorMatrix values="0 0 0 0 0 0 0 0 0 0 0 0 0 0 0 0 0 0 0.12 0"/><feBlend in2="shape" result="effect1_innerShadow_890_11947"/><feColorMatrix in="SourceAlpha" result="hardAlpha" values="0 0 0 0 0 0 0 0 0 0 0 0 0 0 0 0 0 0 127 0"/><feOffset dy=".111"/><feComposite in2="hardAlpha" k2="-1" k3="1" operator="arithmetic"/><feColorMatrix values="0 0 0 0 1 0 0 0 0 1 0 0 0 0 1 0 0 0 0.25 0"/><feBlend in2="effect1_innerShadow_890_11947" result="effect2_innerShadow_890_11947"/></filter><filter id="d" width="12.326" height="9.5" x="15.342" y="24.5" color-interpolation-filters="sRGB" filterUnits="userSpaceOnUse"><feFlood flood-opacity="0" result="BackgroundImageFix"/><feBlend in="SourceGraphic" in2="BackgroundImageFix" result="shape"/><feColorMatrix in="SourceAlpha" result="hardAlpha" values="0 0 0 0 0 0 0 0 0 0 0 0 0 0 0 0 0 0 127 0"/><feOffset dy="-.111"/><feComposite in2="hardAlpha" k2="-1" k3="1" operator="arithmetic"/><feColorMatrix values="0 0 0 0 0 0 0 0 0 0 0 0 0 0 0 0 0 0 0.08 0"/><feBlend in2="shape" result="effect1_innerShadow_890_11947"/></filter></defs></svg>