<svg xmlns="http://www.w3.org/2000/svg" width="145" height="54" fill="none"><rect width="144" height="53" x=".5" y=".8" fill="#222C3A" rx="12"/><g clip-path="url(#a)"><g clip-path="url(#b)"><g fill="#fff" clip-path="url(#c)"><path d="M51.762 20.941c-.013-1.16-.372-2.328-1.39-2.977-1.019-.65-2.31-.62-3.09.343-.063.078-.198.212-.159.326.04.115.286.087.389.138a.467.467 0 0 1 .242.457c0 .222-.01 2.335-.017 5.249l-7.656-.045a15.591 15.591 0 0 1 .463-5.182c.086-.334.327-.744.301-1.088a.23.23 0 0 0-.045-.133c-.069-.085-.199-.07-.305-.043a4.3 4.3 0 0 0-1.78.967 4.71 4.71 0 0 0-.934 1.197c-.982 1.767-1.058 4.27-1.058 4.27-.05 1.62-.114 4.9 1.602 8.304 0 0 1.204 2.388 2.923 2.978.34.116.431.038.462 0 .134-.173-.153-.468-.238-.6a5.384 5.384 0 0 1-.407-.768 8.406 8.406 0 0 1-.514-1.718 24.179 24.179 0 0 1-.542-5.416h7.73v6.853a1.188 1.188 0 0 0 .601 1.104c.258.117.534.188.816.209.489.077.986.077 1.474 0 .288-.045.558-.171.778-.363.341-.317.347-.747.347-1.18 0-3.448.03-6.884.027-10.328-.003-.849-.01-1.7-.02-2.554Z"/><path d="M41.174 36.554c-3.118-.907-4.333-4.236-5.002-7.115-.144-.628-.283-1.244-.36-1.887-.25-1.936-.239-4.064.386-5.93-.475.107-.692.518-.97.852-1.015 1.22-1.096 2.643-1.145 4.059a12.552 12.552 0 0 0 1.362 6.195c.402.76.893 1.468 1.462 2.11.57.633 1.217 1.191 1.925 1.662a5.818 5.818 0 0 1-2.961-1.792c-.32-.411-.612-.844-.872-1.296-.495-.863-1.112-1.941-1.428-3.383-.089-.405-.148-.817-.307-.833-.228-.024-.488.796-.542.974a4.69 4.69 0 0 0-.222 1.379c.013 1.089.823 3.206 2.766 4.643 0 0 1.697 1.255 4.6 1.351.476.004.943-.13 1.344-.386.251-.182.42-.465-.036-.603ZM91.669 20.538a7.413 7.413 0 0 0-.14-1.702 1.829 1.829 0 0 0-.126-.468 1.395 1.395 0 0 0-.505-.624 1.039 1.039 0 0 0-.565-.173c-.141 0-.282.011-.423.011h-.583c-.38 0-.758 0-1.138.01a1.258 1.258 0 0 0-.902.384c-.29.303-.517.735-.903 1.66-.065.152-.114.283-.15.372-.143.314-2.183 4.753-2.952 6.04-.056.096-.18.3-.34.293-.158-.007-.281-.198-.337-.294-.77-1.286-2.81-5.725-2.954-6.04-.034-.088-.083-.219-.148-.371-.38-.925-.609-1.357-.903-1.66a1.262 1.262 0 0 0-.903-.385c-.379-.014-.758 0-1.137-.009h-.583c-.141 0-.282-.009-.423-.01a1.04 1.04 0 0 0-.565.172c-.227.152-.403.37-.506.624-.062.15-.104.307-.124.468a7.52 7.52 0 0 0-.143 1.702l-.444 13.706c.005.102.025.203.06.3.232.667 1.083.997 1.73 1.006.645.01 1.444-.305 1.72-.907.036-.081.063-.167.081-.254.194-.93.305-8.425.347-11.69 1.778 3.666 3.172 6.403 3.815 7.62.132.25.412.748.925.917.312.106.65.106.962 0 .513-.169.793-.668.922-.918.645-1.208 2.037-3.946 3.818-7.62.041 3.266.153 10.76.346 11.691.019.087.046.172.082.254.278.608 1.063.92 1.72.907.657-.012 1.495-.34 1.73-1.007.033-.096.053-.197.06-.299-.132-4.57-.272-9.138-.421-13.706ZM70.25 18.114c-.371-.47-1.005-.486-1.612-.504-.576-.014-1.309-.034-1.767.477-.2.231-.32.52-.347.824l-.03 10.116a3.626 3.626 0 0 1-1.335 2.868 4 4 0 0 1-1.95.76c-.112 0-.228.015-.228.015h-.18s-.117 0-.227-.014a3.999 3.999 0 0 1-1.95-.76 3.625 3.625 0 0 1-1.333-2.868l-.033-10.117a1.457 1.457 0 0 0-.344-.824c-.46-.511-1.192-.491-1.77-.477-.606.018-1.239.035-1.609.505a1.4 1.4 0 0 0-.234 1.023v10.588a5.861 5.861 0 0 0 1.22 3.528c1.056 1.392 2.557 2.012 3.02 2.177a8.76 8.76 0 0 0 2.14.476c.81.058 1.622.058 2.43 0a8.76 8.76 0 0 0 2.142-.476c.462-.181 1.963-.792 3.017-2.177a5.855 5.855 0 0 0 1.223-3.528V19.138a1.4 1.4 0 0 0-.244-1.024ZM112.06 23.211a8.331 8.331 0 0 0-2.962-4.265 9.194 9.194 0 0 0-11.165 0 8.345 8.345 0 0 0-2.963 4.265c-1.454 4.88.733 11.107 5.958 12.482 1.697.39 3.46.39 5.157 0 5.243-1.375 7.428-7.602 5.975-12.482Zm-3.884 5.443c-.542 2.31-2.075 4.793-4.66 4.82-2.586-.027-4.114-2.51-4.66-4.82-.528-2.228-.43-4.85.81-6.836a4.484 4.484 0 0 1 1.634-1.614 4.459 4.459 0 0 1 6.063 1.614c1.242 1.992 1.338 4.613.813 6.841v-.005Z"/></g></g></g><defs><clipPath id="a"><path fill="#fff" d="M32.5 7.3h80v40h-80z"/></clipPath><clipPath id="b"><path fill="#fff" d="M32.5 7.3h80v40h-80z"/></clipPath><clipPath id="c"><path fill="#fff" d="M32.5 17.056h80v20.488h-80z"/></clipPath></defs></svg>