<svg width="145" height="54" viewBox="0 0 145 54" fill="none" xmlns="http://www.w3.org/2000/svg">
<rect x="0.5" y="0.799805" width="144" height="53" rx="12" fill="#222C3A"/>
<g clip-path="url(#clip0_1_1562)">
<g clip-path="url(#clip1_1_1562)">
<g clip-path="url(#clip2_1_1562)">
<mask id="mask0_1_1562" style="mask-type:luminance" maskUnits="userSpaceOnUse" x="52" y="12" width="41" height="31">
<path d="M92.5 12.2998H52.5V42.2998H92.5V12.2998Z" fill="white"/>
</mask>
<g mask="url(#mask0_1_1562)">
<path d="M59.7499 42.234V40.243C59.7499 39.4814 59.2695 38.9827 58.4448 38.9827C58.0325 38.9827 57.5841 39.1141 57.2759 39.5471C57.0357 39.1837 56.6914 38.9827 56.175 38.9827C55.8307 38.9827 55.4865 39.0832 55.2142 39.4466V39.0484H54.4937V42.234H55.2142V40.4749C55.2142 39.9105 55.5225 39.6438 56.0029 39.6438C56.4832 39.6438 56.7234 39.9414 56.7234 40.4749V42.234H57.444V40.4749C57.444 39.9105 57.7883 39.6438 58.2326 39.6438C58.713 39.6438 58.9532 39.9414 58.9532 40.4749V42.234H59.7499ZM70.4384 39.0484H69.2695V38.0858H68.5489V39.0484H67.8964V39.6785H68.5489V41.1399C68.5489 41.8706 68.8571 42.2997 69.6818 42.2997C69.9901 42.2997 70.3343 42.1992 70.5745 42.0677L70.3664 41.4685C70.1582 41.5999 69.918 41.6347 69.7459 41.6347C69.4016 41.6347 69.2655 41.4337 69.2655 41.1051V39.6785H70.4344V39.0484H70.4384ZM76.5553 38.9788C76.143 38.9788 75.8668 39.1798 75.6946 39.4427V39.0445H74.974V42.2301H75.6946V40.4363C75.6946 39.9066 75.9348 39.6051 76.3832 39.6051C76.5193 39.6051 76.6914 39.6399 76.8315 39.6708L77.0397 39.0059C76.8956 38.9788 76.6914 38.9788 76.5553 38.9788ZM67.3119 39.3113C66.9676 39.0793 66.4872 38.9788 65.9708 38.9788C65.1462 38.9788 64.5977 39.377 64.5977 40.0072C64.5977 40.5368 65.0101 40.8383 65.7306 40.935L66.0749 40.9698C66.4512 41.0355 66.6594 41.136 66.6594 41.3023C66.6594 41.5342 66.3832 41.7005 65.9028 41.7005C65.4224 41.7005 65.0421 41.5342 64.8019 41.368L64.4576 41.8976C64.8339 42.1644 65.3503 42.2958 65.8668 42.2958C66.8275 42.2958 67.38 41.8628 67.38 41.2675C67.38 40.703 66.9316 40.4054 66.2471 40.3048L65.9028 40.27C65.5945 40.2352 65.3543 40.1695 65.3543 39.9724C65.3543 39.7404 65.5945 39.609 65.9748 39.609C66.3872 39.609 66.7995 39.7752 67.0077 39.8757L67.3119 39.3113ZM86.4832 38.9788C86.0709 38.9788 85.7947 39.1798 85.6226 39.4427V39.0445H84.902V42.2301H85.6226V40.4363C85.6226 39.9066 85.8627 39.6051 86.3111 39.6051C86.4472 39.6051 86.6194 39.6399 86.7595 39.6708L86.9676 39.0136C86.8275 38.9788 86.6234 38.9788 86.4832 38.9788ZM77.2759 40.6412C77.2759 41.6038 77.9644 42.2997 79.0293 42.2997C79.5097 42.2997 79.8539 42.1992 80.1982 41.9363L79.8539 41.3718C79.5777 41.5729 79.3055 41.6695 78.9933 41.6695C78.4088 41.6695 77.9965 41.2713 77.9965 40.6412C77.9965 40.0419 78.4088 39.6438 78.9933 39.6128C79.3015 39.6128 79.5777 39.7133 79.8539 39.9105L80.1982 39.3461C79.8539 39.0793 79.5097 38.9827 79.0293 38.9827C77.9644 38.9788 77.2759 39.6785 77.2759 40.6412ZM83.9412 40.6412V39.0484H83.2206V39.4466C82.9804 39.1489 82.6362 38.9827 82.1878 38.9827C81.2591 38.9827 80.5385 39.6785 80.5385 40.6412C80.5385 41.6038 81.2591 42.2997 82.1878 42.2997C82.6682 42.2997 83.0125 42.1334 83.2206 41.8358V42.234H83.9412V40.6412ZM81.2951 40.6412C81.2951 40.0767 81.6714 39.6128 82.2919 39.6128C82.8764 39.6128 83.2887 40.0458 83.2887 40.6412C83.2887 41.2056 82.8764 41.6695 82.2919 41.6695C81.6754 41.6347 81.2951 41.2017 81.2951 40.6412ZM72.6722 38.9788C71.7114 38.9788 71.0229 39.6438 71.0229 40.6373C71.0229 41.6347 71.7114 42.2958 72.7082 42.2958C73.1886 42.2958 73.669 42.1644 74.0493 41.8628L73.705 41.3641C73.4288 41.5651 73.0845 41.6966 72.7443 41.6966C72.2959 41.6966 71.8515 41.4956 71.7475 40.935H74.1854C74.1854 40.8345 74.1854 40.7688 74.1854 40.6682C74.2174 39.6438 73.5969 38.9788 72.6722 38.9788ZM72.6722 39.578C73.1206 39.578 73.4288 39.8448 73.4969 40.3396H71.7795C71.8475 39.9105 72.1558 39.578 72.6722 39.578ZM90.5745 40.6412V37.7881H89.8539V39.4466C89.6138 39.1489 89.2695 38.9827 88.8211 38.9827C87.8924 38.9827 87.1718 39.6785 87.1718 40.6412C87.1718 41.6038 87.8924 42.2997 88.8211 42.2997C89.3015 42.2997 89.6458 42.1334 89.8539 41.8358V42.234H90.5745V40.6412ZM87.9284 40.6412C87.9284 40.0767 88.3047 39.6128 88.9252 39.6128C89.5097 39.6128 89.922 40.0458 89.922 40.6412C89.922 41.2056 89.5097 41.6695 88.9252 41.6695C88.3047 41.6347 87.9284 41.2017 87.9284 40.6412ZM63.8051 40.6412V39.0484H63.0845V39.4466C62.8443 39.1489 62.5001 38.9827 62.0517 38.9827C61.123 38.9827 60.4024 39.6785 60.4024 40.6412C60.4024 41.6038 61.123 42.2997 62.0517 42.2997C62.5321 42.2997 62.8764 42.1334 63.0845 41.8358V42.234H63.8051V40.6412ZM61.127 40.6412C61.127 40.0767 61.5033 39.6128 62.1238 39.6128C62.7082 39.6128 63.1206 40.0458 63.1206 40.6412C63.1206 41.2056 62.7082 41.6695 62.1238 41.6695C61.5033 41.6347 61.127 41.2017 61.127 40.6412Z" fill="white"/>
<path d="M77.8964 14.8555H67.0718V33.6364H77.8964V14.8555Z" fill="#FF5A00"/>
<path d="M67.7922 24.2457C67.7922 20.43 69.6497 17.0434 72.5 14.8552C70.4023 13.2624 67.7562 12.2998 64.8699 12.2998C58.0324 12.2998 52.5 17.6426 52.5 24.2457C52.5 30.8488 58.0324 36.1916 64.8699 36.1916C67.7562 36.1916 70.4023 35.2289 72.5 33.6361C69.6457 31.4789 67.7922 28.0614 67.7922 24.2457Z" fill="#EB001B"/>
<path d="M92.5 24.2457C92.5 30.8488 86.9676 36.1916 80.1301 36.1916C77.2438 36.1916 74.5977 35.2289 72.5 33.6361C75.3863 31.4441 77.2078 28.0614 77.2078 24.2457C77.2078 20.43 75.3503 17.0434 72.5 14.8552C74.5937 13.2624 77.2398 12.2998 80.1261 12.2998C86.9676 12.2998 92.5 17.6774 92.5 24.2457Z" fill="#F79E1B"/>
</g>
</g>
</g>
</g>
<defs>
<clipPath id="clip0_1_1562">
<rect width="40" height="40" fill="white" transform="translate(52.5 7.2998)"/>
</clipPath>
<clipPath id="clip1_1_1562">
<rect width="40" height="40" fill="white" transform="translate(52.5 7.2998)"/>
</clipPath>
<clipPath id="clip2_1_1562">
<rect width="40" height="30" fill="white" transform="translate(52.5 12.2998)"/>
</clipPath>
</defs>
</svg>
