<svg width="145" height="54" viewBox="0 0 145 54" fill="none" xmlns="http://www.w3.org/2000/svg">
<rect x="0.5" y="0.799805" width="144" height="53" rx="12" fill="#222C3A"/>
<g clip-path="url(#clip0_1_1544)">
<g clip-path="url(#clip1_1_1544)">
<g clip-path="url(#clip2_1_1544)">
<mask id="mask0_1_1544" style="mask-type:luminance" maskUnits="userSpaceOnUse" x="32" y="15" width="81" height="24">
<path d="M112.5 15.6333H32.5V38.9666H112.5V15.6333Z" fill="white"/>
</mask>
<g mask="url(#mask0_1_1544)">
<path fill-rule="evenodd" clip-rule="evenodd" d="M112.05 25.299C112.617 26.1099 112.674 27.3879 112.073 28.3784C111.536 29.2629 108.321 32.6575 107.276 33.7483C106.369 34.6958 105.145 35.6446 103.94 35.6446H78.7216C75.3133 35.6446 75.1077 34.489 75.1077 31.8764V21.2784C75.1077 18.6101 75.8952 17.8389 78.2227 17.8389H103.94C105.145 17.8389 106.217 18.4537 107.448 19.7055C108.493 20.7678 111.616 24.6752 112.05 25.299Z" fill="#33CCCC"/>
<path fill-rule="evenodd" clip-rule="evenodd" d="M112.05 25.299C112.617 26.1099 112.674 27.3879 112.073 28.3784C111.536 29.2629 108.321 32.6575 107.276 33.7483C106.369 34.6958 105.145 35.6446 103.94 35.6446H78.7216C75.3133 35.6446 75.1077 34.489 75.1077 31.8764V21.2784C75.1077 18.6101 75.8952 17.8389 78.2227 17.8389H103.94C105.145 17.8389 106.217 18.4537 107.448 19.7055C108.493 20.7678 111.616 24.6752 112.05 25.299Z" fill="url(#paint0_linear_1_1544)"/>
<path fill-rule="evenodd" clip-rule="evenodd" d="M80.8247 21.9365V21.8667C80.8247 21.526 80.7961 21.1892 80.2378 21.1892H78.1302C77.6404 21.1892 77.6094 21.4601 77.6094 21.8809V24.6817C78.6354 23.2147 79.773 22.5331 80.8247 21.9365ZM94.9634 32.0569V31.9066H94.9649V25.1655C94.9649 22.3385 93.7221 20.9252 91.2367 20.9255C90.5479 20.919 89.8709 21.1041 89.2812 21.4601C88.6896 21.8166 88.1211 22.3147 87.5758 22.9543C87.3078 22.2593 86.9037 21.7474 86.3634 21.4186C85.823 21.0899 85.1229 20.9255 84.263 20.9255C83.2678 20.9255 82.1107 21.2741 81.2905 21.9488C81.107 22.1326 77.609 24.8858 77.609 27.7135V32.0293C77.609 32.1666 77.5428 32.6873 78.1263 32.6873H80.3204C81.0025 32.6873 80.9359 32.2406 80.9359 32.0569V25.0768C81.3063 24.5855 82.063 23.3723 83.2921 23.3723C83.7638 23.3723 84.1036 23.5319 84.3113 23.8512C84.519 24.1706 84.6233 24.7059 84.6242 25.4574V30.9092H84.6216V32.0295C84.6216 32.1667 84.5554 32.6875 85.1387 32.6875H87.3048C87.9873 32.6875 87.9207 32.2408 87.9207 32.0571V31.9067H87.9233V25.0771C88.3201 24.5858 89.1107 23.3726 90.2788 23.3726C90.7594 23.3726 91.106 23.5322 91.3187 23.8515C91.5313 24.1709 91.6375 24.7062 91.6372 25.4577V30.9095H91.635V32.0297C91.635 32.167 91.569 32.6877 92.1527 32.6877H94.3476C95.0301 32.6875 94.9634 32.2406 94.9634 32.0569ZM107.047 29.3162C106.267 31.4151 104.398 32.588 102.083 32.588C98.7286 32.588 96.513 30.3025 96.513 26.8746C96.513 23.488 98.813 21.0332 101.978 21.0332C105.109 21.0332 107.21 23.2138 107.343 26.7264C107.36 27.1752 107.229 27.5717 106.668 27.5717H99.5508C99.593 29.4553 100.501 30.4713 102.104 30.4713C103.082 30.4713 103.661 30.0497 104.166 29.2236C104.385 28.8641 104.835 28.8841 104.835 28.8841H106.668C106.967 28.8839 107.1 29.1763 107.047 29.316V29.3162ZM101.978 23.2125C100.648 23.2125 99.7197 24.1435 99.5508 25.668H104.32C104.193 24.3346 103.475 23.2125 101.978 23.2125Z" fill="white"/>
<path fill-rule="evenodd" clip-rule="evenodd" d="M45.5994 17.9356C45.3175 17.4864 44.9518 17.0956 44.5222 16.7845C44.0927 16.4827 43.621 16.2461 43.1222 16.0823C42.5683 15.9019 41.9961 15.783 41.4162 15.7279C40.7527 15.6626 40.0864 15.6311 39.4198 15.6334H33.5776C33.0523 15.6334 32.5016 15.9785 32.5016 16.6291V26.1025C33.2417 27.6814 34.6833 29.3576 36.3223 30.1587V28.2799C36.3223 27.2885 37.0689 27.067 37.3778 27.067H39.1052C41.4846 27.067 43.3007 26.5673 44.5534 25.568C45.8061 24.57 46.4324 23.0877 46.4324 21.121C46.436 20.5528 46.3701 19.9862 46.2362 19.4339C46.1031 18.9044 45.8882 18.3989 45.5994 17.9356ZM42.195 22.8009C41.9933 23.151 41.6924 23.4335 41.3304 23.6129C40.938 23.8001 40.5141 23.9124 40.0806 23.944C39.6084 23.9861 39.1208 24.0072 38.6178 24.0073H36.9763C36.5747 24.0073 36.3223 23.6804 36.3223 23.1982V19.325C36.3223 18.8907 36.6055 18.7085 36.9451 18.7085H38.6178C39.1627 18.7085 39.6737 18.7242 40.1508 18.7556C40.5802 18.7752 41.0019 18.877 41.393 19.0556C41.7416 19.2215 42.0301 19.4915 42.2188 19.8284C42.4176 20.1748 42.517 20.6637 42.5172 21.295C42.5172 21.9361 42.4098 22.438 42.195 22.8009ZM36.3223 30.7709C34.5197 30.0506 33.3112 29.1914 32.5016 28.3395V32.9129C32.5016 32.9129 32.4349 33.6587 33.1609 33.6587H35.7097C36.4089 33.6587 36.3226 32.9129 36.3226 32.9129V30.7709H36.3223ZM72.4441 20.617H70.1566C69.6917 20.617 69.3854 20.8125 69.201 21.3237C69.0167 21.835 66.5921 28.5877 66.5921 28.5877C66.5921 28.5877 64.2727 21.9745 64.0902 21.4624C63.9077 20.9503 63.608 20.617 63.068 20.617H60.9661C60.2247 20.617 60.2247 21.1995 60.3166 21.4305C60.3912 21.6171 63.2696 29.5065 64.3659 32.512C64.6244 33.2216 64.7264 33.4351 64.7344 33.698C64.7424 33.9609 64.4752 34.5128 64.2905 34.8295C64.2057 34.974 64.1083 35.1109 63.9995 35.2384C66.1487 34.5949 68.6258 32.26 69.9067 29.7304C71.1734 26.2052 72.8438 21.5483 72.9162 21.3101C73.0327 20.9242 73.0316 20.617 72.4441 20.617ZM62.3434 35.9092C62.1448 35.9057 61.9466 35.8914 61.7496 35.8663C61.5085 35.8344 61.0573 35.8794 61.0573 36.2746V38.0408C61.0573 38.7149 61.3796 38.7598 61.557 38.7997C62.0908 38.911 62.6352 38.9636 63.1804 38.9566C63.9031 38.9566 64.5319 38.8252 65.0668 38.5623C65.607 38.2949 66.0883 37.9223 66.4824 37.4663C66.917 36.9586 67.2843 36.3969 67.5751 35.7952C67.8944 35.1487 68.201 34.4365 68.4947 33.6586C68.4947 33.6586 68.6207 33.307 68.8281 32.7311C68.1971 33.368 65.2232 36.1881 62.3434 35.9092ZM58.9082 22.7137C58.7841 22.4185 58.6145 22.1446 58.4057 21.9018C58.1976 21.6688 57.9595 21.4645 57.6975 21.2944C57.4147 21.1106 57.1148 20.9547 56.8019 20.8291C56.4824 20.7043 56.1538 20.6043 55.819 20.5299C55.4383 20.4465 55.0521 20.3912 54.6634 20.3643C54.2436 20.333 53.7718 20.3173 53.2479 20.317C49.7825 20.317 47.8093 21.4123 47.3282 23.6028C47.1718 24.2825 47.8441 24.3224 47.8441 24.3224H49.9759C50.5324 24.3224 50.5085 24.1431 50.7786 23.6398C50.8759 23.366 51.0509 23.1264 51.2823 22.9505C51.6914 22.6354 52.3046 22.4778 53.1219 22.4777C53.9083 22.4777 54.4796 22.63 54.8359 22.9345C55.1921 23.2391 55.4017 23.7017 55.4648 24.3224C55.4648 25.0422 55.2403 25.5224 54.3702 25.5224C52.249 25.4454 49.9695 25.6854 48.6856 26.4214C47.4018 27.1575 46.676 28.5966 46.676 30.142C46.676 30.7723 46.7887 31.3243 47.0141 31.7978C47.2326 32.262 47.5556 32.6695 47.9577 32.9882C48.3844 33.321 48.8736 33.565 49.3961 33.7057C49.9901 33.8686 50.6039 33.9484 51.2198 33.9428C52.1424 33.9428 52.9575 33.8271 53.6651 33.5957C54.3726 33.3647 55.4674 32.6031 55.6068 32.492V32.898C55.6068 33.3003 55.7293 33.6591 56.2093 33.6591H58.6883C59.1901 33.6591 59.3016 33.3003 59.3016 32.8587V25.2216C59.306 24.7469 59.2745 24.2725 59.2075 23.8025C59.1543 23.4283 59.0537 23.0625 58.9082 22.7137ZM55.5279 30.2016C55.5279 30.2016 54.8877 31.5313 52.6031 31.5313C51.9745 31.5313 51.4636 31.3894 51.0701 31.1057C50.6767 30.822 50.4801 30.3804 50.4804 29.781C50.4804 29.0025 50.8001 28.4529 51.4399 28.1324C52.0789 27.8121 53.3584 27.6292 54.3171 27.6516C55.2759 27.674 55.5279 28.2799 55.5279 28.6982V30.2019V30.2016Z" fill="white"/>
</g>
</g>
</g>
</g>
<defs>
<linearGradient id="paint0_linear_1_1544" x1="124.855" y1="22.98" x2="119.959" y2="52.5523" gradientUnits="userSpaceOnUse">
<stop offset="0.47231" stop-color="#00CCCC"/>
<stop offset="1" stop-color="#3399FF"/>
</linearGradient>
<clipPath id="clip0_1_1544">
<rect width="80" height="40" fill="white" transform="translate(32.5 7.2998)"/>
</clipPath>
<clipPath id="clip1_1_1544">
<rect width="80" height="40" fill="white" transform="translate(32.5 7.2998)"/>
</clipPath>
<clipPath id="clip2_1_1544">
<rect width="80" height="23.3333" fill="white" transform="translate(32.5 15.6333)"/>
</clipPath>
</defs>
</svg>
