<svg width="145" height="54" viewBox="0 0 145 54" fill="none" xmlns="http://www.w3.org/2000/svg">
<rect x="0.5" y="0.799805" width="144" height="53" rx="12" fill="#222C3A"/>
<g clip-path="url(#clip0_1_1502)">
<g clip-path="url(#clip1_1_1502)">
<mask id="mask0_1_1502" style="mask-type:luminance" maskUnits="userSpaceOnUse" x="60" y="9" width="25" height="37">
<path d="M85 9.44287H60V45.1572H85V9.44287Z" fill="white"/>
</mask>
<g mask="url(#mask0_1_1502)">
<mask id="mask1_1_1502" style="mask-type:luminance" maskUnits="userSpaceOnUse" x="60" y="9" width="25" height="37">
<path d="M85 9.44287H60V45.1572H85V9.44287Z" fill="white"/>
</mask>
<g mask="url(#mask1_1_1502)">
<path fill-rule="evenodd" clip-rule="evenodd" d="M84.2025 24.3749C84.2025 28.7798 83.1994 32.0555 81.1935 34.2023C79.1879 36.3412 76.094 37.4105 71.9119 37.4101C68.0091 37.4101 65.0482 36.3409 63.0291 34.2023C61.0101 32.0638 60.0013 28.8382 60.0029 24.5255V10.0553C60.0032 9.89243 60.0678 9.73631 60.1826 9.62108C60.2973 9.50585 60.4529 9.4409 60.6153 9.44043H67.69C67.8525 9.4409 68.0081 9.50583 68.123 9.62104C68.2378 9.73625 68.3025 9.89238 68.303 10.0553V24.8416C68.303 26.6023 68.6276 27.9576 69.2886 28.9137C69.6166 29.3497 70.0395 29.7049 70.525 29.952C71.0106 30.1994 71.546 30.3322 72.0905 30.3404C72.635 30.3486 73.1742 30.232 73.667 29.9995C74.1596 29.767 74.5931 29.4248 74.9339 28.9987C75.58 28.1016 75.9019 26.7795 75.9 25.0326V22.2642H84.2025V24.3749Z" fill="white"/>
<path fill-rule="evenodd" clip-rule="evenodd" d="M83.5598 20.6472H75.9005V10.0858C75.901 9.91522 75.9687 9.75174 76.089 9.63116C76.2094 9.51057 76.3725 9.4427 76.5425 9.44238H77.6889C77.69 11.1741 78.3765 12.8345 79.5976 14.0586C80.8187 15.2827 82.4743 15.9704 84.2006 15.9704V20.6472H83.5598Z" fill="white"/>
<path fill-rule="evenodd" clip-rule="evenodd" d="M79.3198 9.44238H83.5594C83.7293 9.44285 83.8923 9.5108 84.0124 9.63137C84.1326 9.75194 84.2002 9.91533 84.2008 10.0858V14.3454C82.9059 14.3454 81.664 13.8294 80.7484 12.9109C79.8329 11.9924 79.3185 10.7467 79.3185 9.44774L79.3198 9.44238Z" fill="#F4821F"/>
<path fill-rule="evenodd" clip-rule="evenodd" d="M61.3908 44.438C62.3277 44.438 62.7805 43.9142 62.7805 43.1457V41.2939H62.11V43.1279C62.1046 43.3164 62.0261 43.4956 61.8912 43.627C61.7563 43.7586 61.5756 43.832 61.3875 43.832C61.1995 43.832 61.0188 43.7586 60.8839 43.627C60.749 43.4956 60.6705 43.3164 60.6651 43.1279V41.2939H60.0029V43.1511C60.0029 43.91 60.4539 44.438 61.3908 44.438ZM66.8273 44.382V43.8059H65.3433L66.797 41.8231V41.2951H64.4829V41.8743H65.9366L64.4823 43.8511V44.382H66.8273ZM69.9597 44.438C70.2235 44.4439 70.4838 44.3761 70.7113 44.242C70.9387 44.1078 71.1243 43.9126 71.2473 43.6785L70.6836 43.4053C70.6149 43.5389 70.5111 43.6514 70.3835 43.7305C70.2558 43.8095 70.1091 43.8523 69.9591 43.8541C69.7005 43.84 69.4571 43.727 69.279 43.5385C69.1009 43.3498 69.0016 43.0999 69.0016 42.84C69.0016 42.5803 69.1009 42.3304 69.279 42.1417C69.4571 41.9531 69.7005 41.8401 69.9591 41.8261C70.109 41.8288 70.2553 41.872 70.3828 41.9511C70.5103 42.0303 70.6142 42.1422 70.6836 42.2755L71.2485 41.9975C71.1257 41.7635 70.94 41.5688 70.7123 41.4354C70.4848 41.3019 70.2244 41.2353 69.9609 41.2428C69.5425 41.2363 69.1383 41.3954 68.8358 41.6854C68.5333 41.9755 68.3567 42.3732 68.3442 42.7929C68.3316 43.2124 68.4841 43.6201 68.7688 43.9279C69.0534 44.2356 69.4473 44.4186 69.8654 44.4374C69.8974 44.4374 69.9288 44.4374 69.9609 44.4374L69.9597 44.438ZM75.6857 44.382L74.499 41.2939H73.6783L72.4875 44.382H73.2351L73.4286 43.8588H74.7488L74.9381 44.382H75.6857ZM74.569 43.2803H73.6083L74.0889 41.9511L74.569 43.2803ZM80.1105 45.157L78.9831 43.207C79.185 43.1581 79.3632 43.0394 79.4863 42.8718C79.6095 42.7042 79.6698 42.4982 79.6565 42.2904C79.6614 42.1642 79.6414 42.0382 79.5977 41.9198C79.554 41.8013 79.4875 41.6926 79.4019 41.6C79.3164 41.5074 79.2135 41.4325 79.099 41.3798C78.9846 41.327 78.8608 41.2975 78.7351 41.2928C78.6977 41.2904 78.6604 41.2904 78.623 41.2928H77.1805V44.3809H77.8332V43.285H78.3132L79.3551 45.1564L80.1105 45.157ZM78.5239 42.707H77.8361V41.8737H78.5221C78.5765 41.8679 78.6318 41.8731 78.6843 41.8887C78.7369 41.9043 78.786 41.9303 78.8286 41.9648C78.8712 41.9994 78.9065 42.0422 78.9327 42.0905C78.9589 42.1388 78.9754 42.1919 78.9811 42.2467C78.9868 42.3013 78.9817 42.3567 78.9661 42.4094C78.9506 42.4622 78.9248 42.5113 78.8902 42.5541C78.8557 42.5968 78.8131 42.6324 78.765 42.6586C78.7168 42.6849 78.6638 42.7013 78.6093 42.707C78.5804 42.71 78.5511 42.71 78.5221 42.707H78.5239ZM82.5701 44.3826C83.5349 44.3826 84.2043 43.7719 84.2043 42.841C84.2043 41.91 83.5337 41.2934 82.5701 41.2934H81.3565V44.3814L82.5701 44.3826ZM82.5701 43.8041H82.0117V41.8737H82.5701C82.8082 41.856 83.0435 41.9338 83.2244 42.09C83.4054 42.2463 83.5169 42.4682 83.5349 42.707C83.5385 42.7512 83.5385 42.7956 83.5349 42.8398C83.5404 42.9613 83.5219 43.0828 83.4805 43.1972C83.4392 43.3114 83.3757 43.4166 83.2938 43.5063C83.2119 43.5961 83.1132 43.6687 83.0032 43.7201C82.8933 43.7714 82.7743 43.8006 82.6532 43.8059C82.6249 43.8074 82.5965 43.8074 82.5683 43.8059L82.5701 43.8041Z" fill="white"/>
<path fill-rule="evenodd" clip-rule="evenodd" d="M85.0001 41.2362V41.2463C85.0004 41.3602 84.9669 41.4716 84.904 41.5664C84.8411 41.6613 84.7515 41.7352 84.6467 41.779C84.5419 41.8227 84.4265 41.8343 84.3151 41.8122C84.2037 41.7901 84.1013 41.7354 84.021 41.6548C83.9406 41.5745 83.8858 41.4719 83.8637 41.3602C83.8414 41.2485 83.8527 41.1327 83.8961 41.0275C83.9395 40.9222 84.0131 40.8322 84.1074 40.769C84.2018 40.7057 84.3127 40.6719 84.4263 40.6719H84.9995L85.0001 41.2362Z" fill="white"/>
</g>
</g>
</g>
</g>
<defs>
<clipPath id="clip0_1_1502">
<rect width="25" height="40" fill="white" transform="translate(60 7.2998)"/>
</clipPath>
<clipPath id="clip1_1_1502">
<rect width="25" height="35.7143" fill="white" transform="translate(60 9.44287)"/>
</clipPath>
</defs>
</svg>
