<svg width="145" height="54" viewBox="0 0 145 54" fill="none" xmlns="http://www.w3.org/2000/svg">
<rect x="0.5" y="0.799805" width="144" height="53" rx="12" fill="#222C3A"/>
<g clip-path="url(#clip0_1_1556)">
<g clip-path="url(#clip1_1_1556)">
<path d="M68.6932 35.4048H64.2335L67.0208 18.2753H71.4809L68.6932 35.4048ZM60.4818 18.2753L56.2301 30.0571L55.727 27.52L55.7275 27.5209L54.2268 19.8176C54.2268 19.8176 54.0454 18.2753 52.1113 18.2753H45.0825L45 18.5654C45 18.5654 47.1494 19.0126 49.665 20.5233L53.5395 35.4052H58.1862L65.2814 18.2753H60.4818ZM95.5595 35.4048H99.6545L96.0841 18.2749H92.4992C90.8437 18.2749 90.4404 19.5514 90.4404 19.5514L83.7891 35.4048H88.4381L89.3678 32.8604H95.0371L95.5595 35.4048ZM90.6522 29.3455L92.9954 22.9352L94.3137 29.3455H90.6522ZM84.1379 22.3946L84.7743 18.7161C84.7743 18.7161 82.8104 17.9692 80.7632 17.9692C78.5501 17.9692 73.2945 18.9365 73.2945 23.64C73.2945 28.0653 79.4628 28.1203 79.4628 30.4447C79.4628 32.7691 73.93 32.3527 72.1041 30.8869L71.4411 34.733C71.4411 34.733 73.4324 35.7004 76.4749 35.7004C79.5183 35.7004 84.1094 34.1246 84.1094 29.8358C84.1094 25.3821 77.8857 24.9674 77.8857 23.031C77.8862 21.0942 82.2295 21.343 84.1379 22.3946Z" fill="white"/>
<path d="M55.7275 27.521L54.2268 19.8177C54.2268 19.8177 54.0454 18.2754 52.1113 18.2754H45.0825L45 18.5654C45 18.5654 48.3783 19.2656 51.6187 21.8888C54.7171 24.3961 55.7275 27.521 55.7275 27.521Z" fill="#E6A540"/>
</g>
</g>
<defs>
<clipPath id="clip0_1_1556">
<rect width="55" height="40" fill="white" transform="translate(45 7.2998)"/>
</clipPath>
<clipPath id="clip1_1_1556">
<rect width="55" height="18.6607" fill="white" transform="translate(45 17.9692)"/>
</clipPath>
</defs>
</svg>
